HIERARCHY
ROOT Hips
{
	OFFSET -30.774294 -42.871696 87.563606
	CHANNELS 6 Xposition Yposition Zposition Zrotation Yrotation Xrotation
	JOINT Spine
	{
		OFFSET 0.000000 2.080109 8.814247
		CHANNELS 6 Xposition Yposition Zposition Zrotation Yrotation Xrotation
		JOINT Spine1
		{
			OFFSET 0.000000 0.000000 8.844139
			CHANNELS 6 Xposition Yposition Zposition Zrotation Yrotation Xrotation
			JOINT Spine2
			{
				OFFSET 0.000000 0.000000 11.682266
				CHANNELS 6 Xposition Yposition Zposition Zrotation Yrotation Xrotation
				JOINT Spine3
				{
					OFFSET 0.000000 0.000004 11.746696
					CHANNELS 6 Xposition Yposition Zposition Zrotation Yrotation Xrotation
					JOINT Neck
					{
						OFFSET 0.000000 0.000000 17.658264
						CHANNELS 6 Xposition Yposition Zposition Zrotation Yrotation Xrotation
						JOINT Neck1
						{
							OFFSET 0.000000 0.000000 5.101517
							CHANNELS 6 Xposition Yposition Zposition Zrotation Yrotation Xrotation
							JOINT Head
							{
								OFFSET 0.000000 0.000000 5.101517
								CHANNELS 6 Xposition Yposition Zposition Zrotation Yrotation Xrotation
								JOINT HeadEnd
								{
									OFFSET 0.000000 0.000000 11.655090
									CHANNELS 6 Xposition Yposition Zposition Zrotation Yrotation Xrotation
									End Site
									{
										OFFSET 0.000000 0.000000 0.100006
									}
								}
							}
						}
					}
					JOINT RightShoulder
					{
						OFFSET -2.625387 0.000000 11.175217
						CHANNELS 6 Xposition Yposition Zposition Zrotation Yrotation Xrotation
						JOINT RightArm
						{
							OFFSET 0.000000 0.000000 10.434723
							CHANNELS 6 Xposition Yposition Zposition Zrotation Yrotation Xrotation
							JOINT RightForeArm
							{
								OFFSET 0.000000 0.000004 29.628418
								CHANNELS 6 Xposition Yposition Zposition Zrotation Yrotation Xrotation
								JOINT RightHand
								{
									OFFSET 0.000000 0.000000 22.857605
									CHANNELS 6 Xposition Yposition Zposition Zrotation Yrotation Xrotation
									JOINT RightHandThumb1
									{
										OFFSET -2.867325 -2.944290 3.959564
										CHANNELS 6 Xposition Yposition Zposition Zrotation Yrotation Xrotation
										JOINT RightHandThumb2
										{
											OFFSET 0.000000 0.000000 3.350403
											CHANNELS 6 Xposition Yposition Zposition Zrotation Yrotation Xrotation
											JOINT RightHandThumb3
											{
												OFFSET 0.000000 0.000000 3.756516
												CHANNELS 6 Xposition Yposition Zposition Zrotation Yrotation Xrotation
												JOINT RightHandThumb4
												{
													OFFSET 0.000000 0.000000 3.147339
													CHANNELS 6 Xposition Yposition Zposition Zrotation Yrotation Xrotation
													End Site
													{
														OFFSET 0.000000 0.000000 0.100006
													}
												}
											}
										}
									}
									JOINT RightHandIndex1
									{
										OFFSET -0.086754 -2.345280 10.030899
										CHANNELS 6 Xposition Yposition Zposition Zrotation Yrotation Xrotation
										JOINT RightHandIndex2
										{
											OFFSET 0.000000 0.000000 4.061096
											CHANNELS 6 Xposition Yposition Zposition Zrotation Yrotation Xrotation
											JOINT RightHandIndex3
											{
												OFFSET 0.000000 0.000000 3.248871
												CHANNELS 6 Xposition Yposition Zposition Zrotation Yrotation Xrotation
												JOINT RightHandIndex4
												{
													OFFSET 0.000000 0.000000 2.639709
													CHANNELS 6 Xposition Yposition Zposition Zrotation Yrotation Xrotation
													End Site
													{
														OFFSET 0.000000 0.000000 0.100006
													}
												}
											}
										}
									}
									JOINT RightHandMiddle1
									{
										OFFSET 0.104103 -0.006767 9.502945
										CHANNELS 6 Xposition Yposition Zposition Zrotation Yrotation Xrotation
										JOINT RightHandMiddle2
										{
											OFFSET 0.000000 0.000000 4.568726
											CHANNELS 6 Xposition Yposition Zposition Zrotation Yrotation Xrotation
											JOINT RightHandMiddle3
											{
												OFFSET 0.000000 0.000000 3.654984
												CHANNELS 6 Xposition Yposition Zposition Zrotation Yrotation Xrotation
												JOINT RightHandMiddle4
												{
													OFFSET 0.000000 0.000000 2.741241
													CHANNELS 6 Xposition Yposition Zposition Zrotation Yrotation Xrotation
													End Site
													{
														OFFSET 0.000000 0.000000 0.100006
													}
												}
											}
										}
									}
									JOINT RightHandRing1
									{
										OFFSET 0.086754 2.267441 8.921707
										CHANNELS 6 Xposition Yposition Zposition Zrotation Yrotation Xrotation
										JOINT RightHandRing2
										{
											OFFSET 0.000000 0.000000 4.061096
											CHANNELS 6 Xposition Yposition Zposition Zrotation Yrotation Xrotation
											JOINT RightHandRing3
											{
												OFFSET 0.000000 0.000000 3.654984
												CHANNELS 6 Xposition Yposition Zposition Zrotation Yrotation Xrotation
												JOINT RightHandRing4
												{
													OFFSET 0.000000 0.000000 2.741241
													CHANNELS 6 Xposition Yposition Zposition Zrotation Yrotation Xrotation
													End Site
													{
														OFFSET 0.000000 0.000000 0.100006
													}
												}
											}
										}
									}
									JOINT RightHandPinky1
									{
										OFFSET -0.173504 4.467197 7.976990
										CHANNELS 6 Xposition Yposition Zposition Zrotation Yrotation Xrotation
										JOINT RightHandPinky2
										{
											OFFSET 0.000000 0.000000 3.350403
											CHANNELS 6 Xposition Yposition Zposition Zrotation Yrotation Xrotation
											JOINT RightHandPinky3
											{
												OFFSET 0.000000 0.000000 2.842758
												CHANNELS 6 Xposition Yposition Zposition Zrotation Yrotation Xrotation
												JOINT RightHandPinky4
												{
													OFFSET 0.000000 0.000000 2.639709
													CHANNELS 6 Xposition Yposition Zposition Zrotation Yrotation Xrotation
													End Site
													{
														OFFSET 0.000000 0.000000 0.100006
													}
												}
											}
										}
									}
									JOINT RightForeArmEnd
									{
										OFFSET 0.000000 0.000000 0.000000
										CHANNELS 6 Xposition Yposition Zposition Zrotation Yrotation Xrotation
										End Site
										{
											OFFSET 0.000000 0.000000 0.100006
										}
									}
								}
								JOINT RightArmEnd
								{
									OFFSET 0.000000 0.000000 0.000000
									CHANNELS 6 Xposition Yposition Zposition Zrotation Yrotation Xrotation
									End Site
									{
										OFFSET 0.000000 0.000000 0.100006
									}
								}
							}
						}
					}
					JOINT LeftShoulder
					{
						OFFSET 2.625389 0.000000 11.175217
						CHANNELS 6 Xposition Yposition Zposition Zrotation Yrotation Xrotation
						JOINT LeftArm
						{
							OFFSET 0.000000 0.000000 10.813629
							CHANNELS 6 Xposition Yposition Zposition Zrotation Yrotation Xrotation
							JOINT LeftForeArm
							{
								OFFSET 0.000000 0.000004 28.724777
								CHANNELS 6 Xposition Yposition Zposition Zrotation Yrotation Xrotation
								JOINT LeftHand
								{
									OFFSET 0.644384 0.328873 25.716171
									CHANNELS 6 Xposition Yposition Zposition Zrotation Yrotation Xrotation
									JOINT LeftHandThumb1
									{
										OFFSET 2.867323 -2.944290 3.959564
										CHANNELS 6 Xposition Yposition Zposition Zrotation Yrotation Xrotation
										JOINT LeftHandThumb2
										{
											OFFSET 0.000000 0.000000 3.350403
											CHANNELS 6 Xposition Yposition Zposition Zrotation Yrotation Xrotation
											JOINT LeftHandThumb3
											{
												OFFSET 0.000000 0.000000 3.756516
												CHANNELS 6 Xposition Yposition Zposition Zrotation Yrotation Xrotation
												JOINT LeftHandThumb4
												{
													OFFSET 0.000000 0.000000 3.100006
													CHANNELS 6 Xposition Yposition Zposition Zrotation Yrotation Xrotation
													End Site
													{
														OFFSET 0.000000 0.000000 0.100006
													}
												}
											}
										}
									}
									JOINT LeftHandIndex1
									{
										OFFSET 0.086752 -2.345280 10.030899
										CHANNELS 6 Xposition Yposition Zposition Zrotation Yrotation Xrotation
										JOINT LeftHandIndex2
										{
											OFFSET 0.000000 0.000000 4.061096
											CHANNELS 6 Xposition Yposition Zposition Zrotation Yrotation Xrotation
											JOINT LeftHandIndex3
											{
												OFFSET 0.000000 0.000000 3.248871
												CHANNELS 6 Xposition Yposition Zposition Zrotation Yrotation Xrotation
												JOINT LeftHandIndex4
												{
													OFFSET 0.000000 0.000000 2.639709
													CHANNELS 6 Xposition Yposition Zposition Zrotation Yrotation Xrotation
													End Site
													{
														OFFSET 0.000000 0.000000 0.100006
													}
												}
											}
										}
									}
									JOINT LeftHandMiddle1
									{
										OFFSET -0.104101 -0.006767 9.502945
										CHANNELS 6 Xposition Yposition Zposition Zrotation Yrotation Xrotation
										JOINT LeftHandMiddle2
										{
											OFFSET 0.000000 0.000000 4.568726
											CHANNELS 6 Xposition Yposition Zposition Zrotation Yrotation Xrotation
											JOINT LeftHandMiddle3
											{
												OFFSET 0.000000 0.000000 3.654984
												CHANNELS 6 Xposition Yposition Zposition Zrotation Yrotation Xrotation
												JOINT LeftHandMiddle4
												{
													OFFSET 0.000000 0.000000 2.741241
													CHANNELS 6 Xposition Yposition Zposition Zrotation Yrotation Xrotation
													End Site
													{
														OFFSET 0.000000 0.000000 0.100006
													}
												}
											}
										}
									}
									JOINT LeftHandRing1
									{
										OFFSET -0.086752 2.267441 8.921707
										CHANNELS 6 Xposition Yposition Zposition Zrotation Yrotation Xrotation
										JOINT LeftHandRing2
										{
											OFFSET 0.000000 0.000000 4.061096
											CHANNELS 6 Xposition Yposition Zposition Zrotation Yrotation Xrotation
											JOINT LeftHandRing3
											{
												OFFSET 0.000000 0.000000 3.654984
												CHANNELS 6 Xposition Yposition Zposition Zrotation Yrotation Xrotation
												JOINT LeftHandRing4
												{
													OFFSET 0.000000 0.000000 2.741241
													CHANNELS 6 Xposition Yposition Zposition Zrotation Yrotation Xrotation
													End Site
													{
														OFFSET 0.000000 0.000000 0.100006
													}
												}
											}
										}
									}
									JOINT LeftHandPinky1
									{
										OFFSET 0.173504 4.467197 7.976990
										CHANNELS 6 Xposition Yposition Zposition Zrotation Yrotation Xrotation
										JOINT LeftHandPinky2
										{
											OFFSET 0.000000 0.000000 3.350403
											CHANNELS 6 Xposition Yposition Zposition Zrotation Yrotation Xrotation
											JOINT LeftHandPinky3
											{
												OFFSET 0.000000 0.000000 2.842758
												CHANNELS 6 Xposition Yposition Zposition Zrotation Yrotation Xrotation
												JOINT LeftHandPinky4
												{
													OFFSET 0.000000 0.000000 2.639709
													CHANNELS 6 Xposition Yposition Zposition Zrotation Yrotation Xrotation
													End Site
													{
														OFFSET 0.000000 0.000000 0.100006
													}
												}
											}
										}
									}
									JOINT LeftForeArmEnd
									{
										OFFSET 0.000000 0.000000 0.000000
										CHANNELS 6 Xposition Yposition Zposition Zrotation Yrotation Xrotation
										End Site
										{
											OFFSET 0.000000 0.000000 0.100006
										}
									}
								}
								JOINT LeftArmEnd
								{
									OFFSET 0.000000 0.000000 0.000000
									CHANNELS 6 Xposition Yposition Zposition Zrotation Yrotation Xrotation
									End Site
									{
										OFFSET 0.000000 0.000000 0.100006
									}
								}
							}
						}
					}
				}
			}
		}
	}
	JOINT RightUpLeg
	{
		OFFSET -11.289942 0.000000 0.000000
		CHANNELS 6 Xposition Yposition Zposition Zrotation Yrotation Xrotation
		JOINT RightLeg
		{
			OFFSET 0.000000 -0.000004 -38.200321
			CHANNELS 6 Xposition Yposition Zposition Zrotation Yrotation Xrotation
			JOINT RightFoot
			{
				OFFSET 0.000000 -0.000004 -39.900856
				CHANNELS 6 Xposition Yposition Zposition Zrotation Yrotation Xrotation
				JOINT RightToeBase
				{
					OFFSET 0.000000 -15.261642 0.000002
					CHANNELS 6 Xposition Yposition Zposition Zrotation Yrotation Xrotation
					JOINT RightToeBaseEnd
					{
						OFFSET 0.000000 -7.370712 0.000000
						CHANNELS 6 Xposition Yposition Zposition Zrotation Yrotation Xrotation
						End Site
						{
							OFFSET 0.000000 0.000000 0.100000
						}
					}
				}
				JOINT RightLegEnd
				{
					OFFSET 0.000000 0.000000 0.000000
					CHANNELS 6 Xposition Yposition Zposition Zrotation Yrotation Xrotation
					End Site
					{
						OFFSET 0.000000 0.000000 0.100000
					}
				}
			}
			JOINT RightUpLegEnd
			{
				OFFSET 0.000000 0.000000 0.000000
				CHANNELS 6 Xposition Yposition Zposition Zrotation Yrotation Xrotation
				End Site
				{
					OFFSET 0.000000 0.000000 0.099998
				}
			}
		}
	}
	JOINT LeftUpLeg
	{
		OFFSET 11.315660 0.000000 0.000000
		CHANNELS 6 Xposition Yposition Zposition Zrotation Yrotation Xrotation
		JOINT LeftLeg
		{
			OFFSET 0.000000 -0.000004 -38.200321
			CHANNELS 6 Xposition Yposition Zposition Zrotation Yrotation Xrotation
			JOINT LeftFoot
			{
				OFFSET 0.000000 -0.000004 -39.900856
				CHANNELS 6 Xposition Yposition Zposition Zrotation Yrotation Xrotation
				JOINT LeftToeBase
				{
					OFFSET 0.000000 -15.261642 0.000002
					CHANNELS 6 Xposition Yposition Zposition Zrotation Yrotation Xrotation
					JOINT LeftToeBaseEnd
					{
						OFFSET 0.000000 -7.539993 0.000000
						CHANNELS 6 Xposition Yposition Zposition Zrotation Yrotation Xrotation
						End Site
						{
							OFFSET 0.000000 0.000000 0.100000
						}
					}
				}
				JOINT LeftLegEnd
				{
					OFFSET 0.000000 0.000000 0.000000
					CHANNELS 6 Xposition Yposition Zposition Zrotation Yrotation Xrotation
					End Site
					{
						OFFSET 0.000000 0.000000 0.100000
					}
				}
			}
			JOINT LeftUpLegEnd
			{
				OFFSET 0.000000 0.000000 0.000000
				CHANNELS 6 Xposition Yposition Zposition Zrotation Yrotation Xrotation
				End Site
				{
					OFFSET 0.000000 0.000000 0.099998
				}
			}
		}
	}
}
MOTION
Frames: 2
Frame Time: 0.016667
12.171144 1.360828 86.251801 -1.720291 5.073975 -7.353802 0.000001 2.080106 8.814256 -0.476966 -2.448471 5.626944 -0.000000 -0.000001 8.844148 0.078859 -0.213483 11.693965 0.000000 -0.000002 11.682252 1.437152 0.413162 5.357146 0.000002 -0.000001 11.746689 0.804564 0.693718 -1.066579 -0.000005 -0.000004 17.658276 -5.803240 -13.061061 12.161567 -0.000003 0.000007 5.101522 -2.888977 3.106238 -5.824360 0.000001 0.000003 5.101525 3.776283 -2.019239 -16.823045 -0.000002 0.000000 11.655060 0.000000 0.000000 -0.000000 -2.625393 -0.000004 11.175208 12.823106 -93.093218 -0.560339 0.000007 0.000002 10.434723 -53.404675 -31.952421 70.139889 -0.000002 0.000009 29.628410 12.669379 0.649539 40.240343 0.000008 -0.000010 22.857616 -14.512533 9.943760 -11.705723 -2.867329 -2.944309 3.959570 32.088908 -14.721998 55.537310 0.000003 0.000006 3.350410 -7.118205 5.629086 -13.352999 -0.000003 -0.000006 3.756536 -4.801595 4.087747 -9.191253 0.000006 -0.000012 3.147339 0.000002 -0.000001 -0.000001 -0.086746 -2.345287 10.030899 -7.714507 5.290111 6.618092 0.000001 -0.000004 4.061105 0.500307 -0.000023 -0.000010 0.000000 -0.000001 3.248891 0.000289 -0.000014 0.000003 0.000001 -0.000004 2.639708 -0.000000 -0.000003 -0.000001 0.104106 -0.006775 9.502964 -2.783903 4.242504 2.811305 0.000002 -0.000001 4.568727 0.506556 0.055903 0.000491 -0.000001 0.000005 3.654998 0.005587 -0.031141 -0.000234 -0.000008 -0.000002 2.741256 -0.000000 -0.000002 -0.000000 0.086751 2.267442 8.921693 5.279734 4.467422 -1.359221 0.000008 0.000000 4.061104 -1.000148 -0.000007 -0.000017 -0.000006 0.000000 3.654998 -0.000125 -0.000004 -0.000002 0.000001 -0.000000 2.741241 0.000000 -0.000001 -0.000000 -0.173497 4.467197 7.976987 13.833670 6.398735 -6.088741 -0.000001 -0.000001 3.350415 -2.000175 -0.000080 0.000003 0.000002 0.000000 2.842777 -0.000146 0.000006 -0.000000 -0.000001 -0.000006 2.639711 0.000001 0.000001 -0.000001 -0.000000 -0.000003 0.000000 0.000001 0.000001 0.000001 0.000004 -0.000007 0.000016 -0.000002 0.000000 -0.000002 2.625400 0.000002 11.175228 -10.406219 89.567303 1.508006 -0.000010 0.000006 10.813622 50.683822 27.977131 62.976584 -0.000004 0.000005 28.724760 -3.961022 0.291905 47.328925 0.644379 0.328887 25.716173 14.302920 -2.580835 -23.216211 2.867331 -2.944301 3.959564 -33.066927 11.900314 60.484426 0.000000 0.000005 3.350416 1.191947 -1.143599 -2.371653 -0.000001 0.000007 3.756529 0.822677 -0.799389 -1.643925 0.000008 0.000004 3.100006 0.000001 0.000003 0.000001 0.086755 -2.345279 10.030886 -13.323859 -21.674415 7.489943 0.000003 -0.000002 4.061097 0.518881 0.000089 -0.000047 -0.000004 -0.000001 3.248872 0.017668 -0.000002 0.000365 0.000010 -0.000003 2.639722 0.000000 -0.000003 0.000001 -0.104100 -0.006768 9.502954 -7.355969 -19.741303 1.173879 -0.000003 -0.000001 4.568725 0.516534 -0.027872 -0.000241 -0.000001 0.000000 3.654994 0.014580 0.015547 0.000071 0.000000 0.000005 2.741238 -0.000001 -0.000005 0.000002 -0.086749 2.267442 8.921699 1.995028 -14.210282 -5.597634 -0.000013 -0.000004 4.061100 -1.010624 0.000043 0.000026 0.000001 0.000000 3.654984 -0.008426 0.000005 0.003939 -0.000006 0.000000 2.741258 0.000001 0.000003 0.000000 0.173509 4.467205 7.977010 11.342234 -6.643964 -10.806289 0.000009 -0.000003 3.350414 -2.000618 -0.000003 0.000005 0.000000 -0.000001 2.842762 -0.000723 0.000003 -0.000005 -0.000004 0.000001 2.639712 0.000000 0.000005 -0.000001 0.000000 0.000001 -0.000016 -0.000000 0.000000 0.000001 -0.000002 0.000003 -0.000015 -0.000001 -0.000001 -0.000002 -11.289942 -0.000003 0.000010 -2.386606 -0.433618 0.106320 -0.000001 -0.000008 -38.200317 -0.731526 0.218496 17.489280 0.000003 -0.000004 -39.900848 -10.551937 0.906855 18.258214 0.000000 -15.261647 0.000006 -0.573235 -0.008063 -30.217115 0.000001 -7.370720 0.000002 0.000001 0.000001 -0.000000 -0.000001 -0.000002 0.000001 0.000003 0.000000 -0.000002 -0.000001 -0.000000 0.000004 -0.000000 -0.000000 0.000000 11.315658 -0.000001 0.000005 -1.460710 -6.156197 -8.724021 -0.000001 -0.000010 -38.200306 0.488065 -0.292900 30.968078 -0.000003 -0.000013 -39.900856 8.137514 -2.805898 11.301625 -0.000001 -15.261651 0.000009 1.409058 0.145970 -35.156049 -0.000005 -7.540001 -0.000000 0.000000 -0.000000 0.000000 -0.000002 -0.000004 0.000003 -0.000000 -0.000000 0.000000 -0.000004 -0.000005 0.000010 -0.000000 0.000000 0.000001 
11.713602 1.245735 86.292534 -1.970594 5.107939 -7.693638 -0.000000 2.080108 8.814250 -0.482274 -2.521865 5.631533 -0.000002 -0.000002 8.844150 -0.010301 -0.406459 11.551218 -0.000002 0.000001 11.682265 1.217562 0.223103 5.458912 -0.000001 -0.000001 11.746677 0.721858 0.651362 -1.024038 -0.000006 0.000001 17.658266 -5.747018 -13.169482 12.252718 0.000002 0.000011 5.101537 -2.773422 3.094939 -5.757937 0.000001 -0.000005 5.101509 3.778090 -1.990468 -16.794018 -0.000004 -0.000000 11.655136 0.000001 0.000001 0.000000 -2.625396 -0.000006 11.175210 12.767281 -93.082207 -0.565140 0.000005 0.000002 10.434725 -53.488427 -31.137402 70.131932 -0.000004 0.000006 29.628439 12.668161 0.705758 41.160653 -0.000011 -0.000008 22.857592 -16.528397 10.492350 -11.997865 -2.867315 -2.944296 3.959564 32.267368 -14.071158 56.625468 0.000007 -0.000002 3.350423 -5.725499 4.732104 -10.867874 0.000001 0.000006 3.756527 -3.879373 3.402857 -7.492631 0.000001 0.000003 3.147352 -0.000000 -0.000002 0.000002 -0.086749 -2.345283 10.030907 -6.949532 10.088463 6.856244 -0.000004 -0.000001 4.061104 0.502389 -0.000023 -0.000008 -0.000000 -0.000002 3.248879 0.002256 0.000008 -0.000004 0.000004 -0.000001 2.639724 0.000001 -0.000001 0.000001 0.104105 -0.006768 9.502951 -1.982164 8.942764 2.958662 -0.000001 -0.000002 4.568725 0.513911 -0.000013 0.000012 0.000005 -0.000001 3.654979 0.011878 0.000008 0.000098 -0.000007 -0.000003 2.741242 -0.000002 0.000003 0.000001 0.086760 2.267439 8.921705 6.170338 9.210177 -1.325603 -0.000004 0.000003 4.061085 -1.001386 -0.000021 0.000021 0.000006 0.000002 3.654980 -0.000915 -0.000007 -0.000001 0.000007 -0.000000 2.741241 0.000001 -0.000001 0.000000 -0.173496 4.467196 7.976994 14.808574 11.153727 -5.965768 0.000012 -0.000005 3.350405 -2.001419 -0.000018 0.000003 0.000004 0.000005 2.842776 -0.001219 0.000000 -0.000003 0.000000 -0.000002 2.639709 0.000001 -0.000002 -0.000000 0.000004 -0.000000 -0.000001 0.000004 -0.000001 0.000001 -0.000008 -0.000009 0.000000 0.000001 0.000003 0.000003 2.625389 0.000005 11.175219 -9.635587 89.664107 2.248602 0.000016 -0.000002 10.813624 50.721927 27.703934 62.950746 0.000000 0.000001 28.724754 -4.552256 0.182436 47.845130 0.644382 0.328882 25.716167 15.648696 -2.932054 -23.237577 2.867323 -2.944290 3.959571 -33.202834 11.604903 61.042056 0.000003 -0.000000 3.350416 0.590007 -0.577973 -1.182570 0.000006 0.000012 3.756524 0.408495 -0.402684 -0.820522 -0.000000 -0.000004 3.100007 0.000001 0.000002 0.000000 0.086757 -2.345277 10.030909 -14.198060 -24.662859 9.297575 -0.000010 -0.000005 4.061095 0.524718 0.000063 -0.000060 0.000002 0.000000 3.248872 0.023143 -0.000005 0.000444 0.000008 0.000002 2.639710 -0.000001 0.000000 -0.000000 -0.104097 -0.006772 9.502940 -8.072507 -22.807477 2.598237 0.000002 -0.000000 4.568727 0.521485 0.000049 0.000010 0.000001 -0.000003 3.654996 0.019176 -0.000003 0.000089 0.000014 -0.000002 2.741224 -0.000000 -0.000003 0.000001 -0.086743 2.267441 8.921708 1.471319 -17.424531 -4.929486 0.000004 0.000000 4.061118 -1.015323 0.000001 0.000036 0.000004 0.000001 3.654991 -0.012117 0.000002 0.005140 -0.000009 -0.000001 2.741243 0.000000 0.000002 -0.000001 0.173508 4.467194 7.976974 10.903056 -9.838223 -10.856052 0.000005 -0.000000 3.350402 -2.001167 -0.000009 0.000018 -0.000000 -0.000001 2.842768 -0.001388 0.000002 -0.000233 0.000003 -0.000002 2.639693 0.000000 -0.000003 0.000000 0.000008 -0.000004 -0.000028 0.000000 0.000004 -0.000001 0.000006 -0.000003 -0.000015 0.000002 0.000004 0.000002 -11.289940 -0.000003 0.000017 -2.432278 -0.777158 0.515201 0.000001 -0.000011 -38.200317 -0.730945 0.220070 17.456302 -0.000003 -0.000003 -39.900856 -10.367046 1.254196 18.189156 -0.000003 -15.261650 0.000004 -0.596692 0.000599 -30.234867 0.000005 -7.370720 0.000001 0.000000 0.000002 0.000000 0.000001 -0.000004 0.000001 0.000001 -0.000000 -0.000001 -0.000000 -0.000000 0.000007 -0.000000 0.000000 0.000001 11.315659 -0.000001 0.000016 -1.191864 -6.560078 -8.147778 -0.000000 -0.000011 -38.200321 0.522693 -0.310700 30.726941 -0.000001 -0.000004 -39.900856 7.931636 -2.504994 11.327104 0.000001 -15.261650 0.000006 1.395068 0.139932 -35.312474 -0.000002 -7.540001 0.000001 -0.000000 -0.000001 -0.000000 -0.000002 -0.000004 0.000001 0.000001 0.000000 -0.000001 -0.000002 -0.000006 0.000006 -0.000000 -0.000000 0.000002 
